<svg xmlns="http://www.w3.org/2000/svg" viewBox="0 0 240 56" role="img" aria-label="Castor Construtor">
  <defs>
    <linearGradient id="ccl-hat" x1="4" y1="8" x2="44" y2="28" gradientUnits="userSpaceOnUse">
      <stop stop-color="#FBBF24"/>
      <stop offset="1" stop-color="#D97706"/>
    </linearGradient>
  </defs>
  <!-- Ícone (48x48 em x=4..52) -->
  <g transform="translate(4,4)">
    <rect width="48" height="48" rx="10" fill="rgba(255,255,255,0.12)"/>
    <path fill="url(#ccl-hat)" d="M10 20c0-6 5.5-11 14-11s14 5 14 11v3H10v-3z"/>
    <path fill="#B45309" d="M10 20h28v4c0 1-1 2-2 2H12c-1 0-2-1-2-2v-4z"/>
    <ellipse cx="24" cy="31" rx="13" ry="10" fill="#92400E"/>
    <ellipse cx="24" cy="29" rx="10" ry="7" fill="#A16207"/>
    <rect x="17" y="35" width="5" height="6" rx="1" fill="#FEF3C7"/>
    <rect x="26" y="35" width="5" height="6" rx="1" fill="#FEF3C7"/>
    <ellipse cx="24" cy="30" rx="3.5" ry="2.5" fill="#292524"/>
    <circle cx="18" cy="26" r="2" fill="#292524"/>
    <circle cx="30" cy="26" r="2" fill="#292524"/>
    <ellipse cx="11" cy="28" rx="4" ry="5" fill="#78350F" transform="rotate(-15 11 28)"/>
    <ellipse cx="37" cy="28" rx="4" ry="5" fill="#78350F" transform="rotate(15 37 28)"/>
  </g>
  <!-- Texto -->
  <text x="64" y="36" fill="#ffffff" font-family="system-ui, 'Segoe UI', sans-serif" font-size="18" font-weight="700">
    <tspan>Castor</tspan><tspan font-weight="300" fill="rgba(255,255,255,0.7)"> Construtor</tspan>
  </text>
</svg>
